<?xml version="1.0" encoding="UTF-8" standalone="no"?>
<svg
   width="256"
   height="256"
   viewBox="0 0 256 256"
   version="1.1"
   id="svg7"
   sodipodi:docname="pluginIcon.svg"
   inkscape:version="1.4 (e7c3feb100, 2024-10-09)"
   xml:space="preserve"
   xmlns:inkscape="http://www.inkscape.org/namespaces/inkscape"
   xmlns:sodipodi="http://sodipodi.sourceforge.net/DTD/sodipodi-0.dtd"
   xmlns="http://www.w3.org/2000/svg"
   xmlns:svg="http://www.w3.org/2000/svg"><sodipodi:namedview
     id="namedview7"
     pagecolor="#ffffff"
     bordercolor="#000000"
     borderopacity="0.25"
     inkscape:showpageshadow="2"
     inkscape:pageopacity="0.0"
     inkscape:pagecheckerboard="0"
     inkscape:deskcolor="#d1d1d1"
     inkscape:zoom="1.8574219"
     inkscape:cx="113.86751"
     inkscape:cy="64.874868"
     inkscape:window-width="2192"
     inkscape:window-height="1164"
     inkscape:window-x="0"
     inkscape:window-y="0"
     inkscape:window-maximized="1"
     inkscape:current-layer="svg7" /><defs
     id="defs2"><linearGradient
       id="a"
       x1="85.352%"
       x2="14.645%"
       y1="85.352%"
       y2="14.645%"><stop
         offset="0%"
         stop-color="#00A9E7"
         id="stop1" /><stop
         offset="100%"
         stop-color="#00326E"
         id="stop2" /></linearGradient></defs><circle
     cx="99.020248"
     cy="99.178566"
     r="77.809998"
     style="fill:none;stroke:#003c74;stroke-width:4px;stroke-miterlimit:10"
     id="circle1" /><rect
     x="-18.428055"
     y="216.37933"
     width="37.080002"
     height="99.839996"
     transform="rotate(-45)"
     style="fill:#003c74"
     id="rect1" /><g
     id="g8"
     transform="matrix(0.48066815,0,0,0.52189171,-125.44139,52.251927)"
     style="fill:#d45500;stroke:#d45500;stroke-width:2.98289;stroke-dasharray:none"><path
       d="m 419.99865,64.04395 c -5.12863,-0.0029 -9.28959,-4.151965 -9.30716,-9.280562 l -0.22338,-73.148918 c -0.0118,-5.139002 4.14157,-9.316156 9.28056,-9.333754 h 0.0284 c 5.12983,-1.8e-5 9.29249,4.150753 9.30715,9.280562 l 0.22339,73.148918 c 0.0147,5.14021 -4.14035,9.319087 -9.28056,9.333754 z m 92.75243,-0.28177 c -5.12982,10e-7 -9.29246,-4.150764 -9.30712,-9.280562 L 503.22584,-18.6673 c -0.0147,-5.140214 4.14036,-9.319092 9.28057,-9.333754 h 0.0284 c 5.12983,-1.8e-5 9.29249,4.150753 9.30715,9.280562 l 0.21812,73.148918 c 0.0118,5.13901 -4.14159,9.316167 -9.28058,9.333754 z"
       fill="#315693"
       id="path1"
       style="fill:#d45500;stroke:#d45500;stroke-width:2.98289;stroke-dasharray:none"
       sodipodi:nodetypes="scccsccsssccssccss" /><path
       d="m 383.05718,54.848486 166.64068,-0.499928 0.18082,60.549672 a 61.629325,61.629325 0 0 1 -61.4485,61.81546 l -43.382,0.1277 A 61.629325,61.629325 0 0 1 383.23273,115.3982 Z"
       fill="#6bc1b0"
       id="path2-3"
       style="fill:#d45500;stroke:#d45500;stroke-width:2.98289;stroke-dasharray:none" /><path
       fill="#38a590"
       d="m 439.98508,176.84666 h 53.39119 v 34.71837 h -53.39119 z"
       id="path4-6"
       style="fill:#d45500;stroke:#d45500;stroke-width:2.98289;stroke-dasharray:none" /></g></svg>
