<?xml version="1.0" encoding="UTF-8" standalone="no"?>
<svg width="16" height="16" viewBox="0 0 256 256" version="1.1" xmlns="http://www.w3.org/2000/svg">
  <g transform="translate(2.7499992,2.7499983)">
    <circle cx="99.020248" cy="99.178566" r="77.809998" style="fill:#d5f6ff;stroke:#003c74;stroke-width:15;stroke-miterlimit:10;stroke-dasharray:none"/>
    <rect x="-18.428055" y="216.37933" width="37.080002" height="99.839996" transform="rotate(-45)" style="fill:#003c74;paint-order:markers stroke fill"/>
    <g transform="matrix(0.48066815,0,0,0.52189171,-125.44139,52.251927)" style="fill:#d45500;stroke:#d45500;stroke-width:2.98289;stroke-dasharray:none">
      <path d="m 419.99865,64.04395 c -5.12863,-0.0029 -9.28959,-4.151965 -9.30716,-9.280562 l -0.22338,-73.148918 c -0.0118,-5.139002 4.14157,-9.316156 9.28056,-9.333754 h 0.0284 c 5.12983,-1.8e-5 9.29249,4.150753 9.30715,9.280562 l 0.22339,73.148918 c 0.0147,5.14021 -4.14035,9.319087 -9.28056,9.333754 z m 92.75243,-0.28177 c -5.12982,10e-7 -9.29246,-4.150764 -9.30712,-9.280562 L 503.22584,-18.6673 c -0.0147,-5.140214 4.14036,-9.319092 9.28057,-9.333754 h 0.0284 c 5.12983,-1.8e-5 9.29249,4.150753 9.30715,9.280562 l 0.21812,73.148918 c 0.0118,5.13901 -4.14159,9.316167 -9.28058,9.333754 z" style="fill:#d45500;stroke:#d45500;stroke-width:2.98289;stroke-dasharray:none"/>
      <path d="m 383.05718,54.848486 166.64068,-0.499928 0.18082,60.549672 a 61.629325,61.629325 0 0 1 -61.4485,61.81546 l -43.382,0.1277 A 61.629325,61.629325 0 0 1 383.23273,115.3982 Z" style="fill:#d45500;stroke:#d45500;stroke-width:2.98289;stroke-dasharray:none"/>
      <path d="m 439.98508,176.84666 h 53.39119 v 34.71837 h -53.39119 z" style="fill:#d45500;stroke:#d45500;stroke-width:2.98289;stroke-dasharray:none"/>
    </g>
  </g>
</svg>
